<!DOCTYPE svg PUBLIC "-//W3C//DTD SVG 1.1//EN" "http://www.w3.org/Graphics/SVG/1.1/DTD/svg11.dtd">
<!-- Uploaded to: SVG Repo, www.svgrepo.com, Transformed by: SVG Repo Mixer Tools -->
<svg width="800px" height="800px" viewBox="-6.96 -6.96 37.92 37.92" fill="none" xmlns="http://www.w3.org/2000/svg">
<g id="SVGRepo_bgCarrier" stroke-width="0">
<path transform="translate(-6.96, -6.96), scale(1.185)" d="M16,26.181277528013055C19.137010486204723,26.772359675739064,22.704107877019638,30.623573869204176,25.05820585106685,28.467550765314616C27.537324410914024,26.197026364360045,23.93029939801411,22.016599833732926,24.20555113594138,18.666145182513652C24.384740848255223,16.484989090299663,26.55478568588427,14.813891892439521,26.35897466476775,12.634165098639292C26.139476517528582,10.19075823625428,25.028113837106044,7.7455366767928195,23.089471214107547,6.242179995201555C21.124556024782347,4.718449760660802,18.457810126161277,4.224521236660927,16,4.601104444775142C13.732508744256595,4.948527186007167,12.307600610822616,7.033187552244648,10.33082302244546,8.197047304142515C8.042681477827346,9.544227617236162,4.314734268704108,9.411502503544014,3.5242727412841806,11.946390488813465C2.731544948894086,14.488546035684637,5.965166895775967,16.46921111734646,6.984109524917795,18.929440394432863C7.883235856330457,21.100374126201217,7.292264723265239,23.992326066283606,9.123238289676067,25.46505048947828C10.96411162629759,26.945737689220234,13.678385809479407,25.743834074139137,16,26.181277528013055" fill="#7ed0ec" strokewidth="0"/>
</g>
<g id="SVGRepo_tracerCarrier" stroke-linecap="round" stroke-linejoin="round"/>
<g id="SVGRepo_iconCarrier"> <path d="M5.63605 18.364L18.364 5.63603M5.63605 5.63603L18.364 18.364M21 12C21 16.9706 16.9706 21 12 21C7.02944 21 3 16.9706 3 12C3 7.02944 7.02944 3 12 3C16.9706 3 21 7.02944 21 12Z" stroke="#ffffff" stroke-width="1.5" stroke-linecap="round" stroke-linejoin="round"/> </g>
</svg>