<!DOCTYPE svg PUBLIC "-//W3C//DTD SVG 1.1//EN" "http://www.w3.org/Graphics/SVG/1.1/DTD/svg11.dtd">
<!-- Uploaded to: SVG Repo, www.svgrepo.com, Transformed by: SVG Repo Mixer Tools -->
<svg fill="#ffffff" width="800px" height="800px" viewBox="-18.48 -18.48 92.96 92.96" xmlns="http://www.w3.org/2000/svg" stroke="#ffffff" stroke-width="3.976">
<g id="SVGRepo_bgCarrier" stroke-width="0" transform="translate(0,0), scale(1)">
<path transform="translate(-18.48, -18.48), scale(2.905)" d="M16,30.60030659901745C18.327397236721634,30.697432145527067,20.489690962166343,29.566861983452462,22.555717284004785,28.490875688579237C24.62626663916381,27.412533798420142,27.46277423478156,26.579508706696576,28.055906768841346,24.321591599878623C28.70864379832356,21.836774092004635,25.630816845627084,19.724755436685303,25.532882792501084,17.157501534490844C25.456699278696945,15.16041863172431,28.00220111958126,13.563153033862806,27.571056616528423,11.61167706276163C27.151035041404484,9.71054645482254,24.984567135445552,8.784523175513241,23.425397949539608,7.618458356674321C21.963808790533506,6.5253712732972176,20.51658537752536,5.275363359830264,18.71424347837095,4.987881325395916C16.952246220771098,4.70683445159234,15.323377553315636,5.889100826277379,13.545722181925619,6.042603470008295C11.383684793011591,6.229297955556347,9.176247616399682,5.2647566229233655,7.130291926646697,5.98816924208592C4.780821743880991,6.8188990506889935,2.066839339650281,8.051138469069599,1.228281139678268,10.397825985520504C0.3866323523364831,12.75316244583647,1.7611131429683535,15.400382271783382,2.9881282686654664,17.5799272710523C4.026742961014702,19.424816882817193,6.480334722635041,19.999443459824207,7.633326481799195,21.775097751081734C8.835248033483964,23.626105916613746,8.206877766817138,26.353806336582892,9.725298759176246,27.95544435287549C11.309937291532389,29.62692895976339,13.698757395377317,30.504272521938272,16,30.60030659901745" fill="#7ed0ec" strokewidth="0"/>
</g>
<g id="SVGRepo_tracerCarrier" stroke-linecap="round" stroke-linejoin="round" stroke="#CCCCCC" stroke-width="0.44800000000000006"/>
<g id="SVGRepo_iconCarrier">
<path d="M 22.6211 53.2187 L 43.9023 25.8203 C 44.3008 25.3282 44.5117 24.8594 44.5117 24.3203 C 44.5117 23.4297 43.8320 22.7500 42.8477 22.7500 L 29.5820 22.7500 L 36.5899 4.5156 C 37.5039 2.1016 34.9492 .7891 33.4023 2.8047 L 12.1211 30.1797 C 11.6992 30.6953 11.4883 31.1641 11.4883 31.6797 C 11.4883 32.5938 12.1914 33.2734 13.1758 33.2734 L 26.4180 33.2734 L 19.4336 51.4844 C 18.4961 53.8984 21.0742 55.2109 22.6211 53.2187 Z M 31.8320 29.7813 L 17.3477 29.7813 L 30.5664 12.2266 L 24.1680 26.2422 L 38.6289 26.2422 L 25.4101 43.7969 Z"/>
</g>
</svg>