
            <svg xmlns="http://www.w3.org/2000/svg" viewBox="-6.96 -6.96 37.92 37.92" width="60" height="60">
                <path transform="translate(-6.96, -6.96), scale(1.185)" d="M16,30.616041195113212C18.461866825437493,30.327383836946805,20.24990310342244,28.291374849674096,22.255297327414155,26.834492787531126C24.066449526741117,25.51872398783943,25.974408444975687,24.338861794856467,27.210065667318876,22.472134430659935C28.49060936209617,20.53759634609542,29.05653113873198,18.29018353968556,29.42705658916384,16C29.849849642972558,13.386755238007112,31.06196518136196,10.346012081940618,29.520074881492267,8.194181127706546C27.94867060828306,6.00116106850192,24.510839624784943,6.5874112869604105,21.99128582957201,5.622788540513836C19.922310214374217,4.830671720442361,18.210284950442528,2.8671286673964294,16,3.0179583420976996C13.803191324634676,3.1678683968261363,12.486364424208878,5.541102960231769,10.462912902235988,6.409483820738625C8.073730877502918,7.43482093408955,4.494253423009985,6.3576327429976045,3.101905495878958,8.553281666012474C1.7297208290701722,10.717134340440095,3.6439764787096833,13.546090859669327,4.381186820100993,15.999999999999998C4.949542484030721,17.891852406795753,6.247332264238447,19.386126948456614,6.914877077551173,21.24529816489666C7.764704833757973,23.61214346391232,7.08580674703942,26.602361218326113,8.83630199171602,28.40788892042781C10.605791197792866,30.233007720297454,13.475219902977596,30.912075223122876,16,30.616041195113212" fill="#7ed0ec" strokewidth="0"></path>
                <text x="15%" y="55%" font-size="20" font-weight="bold" fill="#fff">D</text>
            </svg>
        