<!DOCTYPE svg PUBLIC "-//W3C//DTD SVG 1.1//EN" "http://www.w3.org/Graphics/SVG/1.1/DTD/svg11.dtd">
<!-- Uploaded to: SVG Repo, www.svgrepo.com, Transformed by: SVG Repo Mixer Tools -->
<svg width="800px" height="800px" viewBox="-7.2 -7.2 86.40 86.40" id="emoji" xmlns="http://www.w3.org/2000/svg" fill="#000000">
<g id="SVGRepo_bgCarrier" stroke-width="0">
<path transform="translate(-7.2, -7.2), scale(2.7)" d="M16,29.78933890722692C18.375630367418562,29.27325626854659,17.435761856614132,24.582688700443377,19.651223380430597,23.58184347312931C21.954537901843942,22.541310238415953,24.67995413703822,25.711713361191634,27.038287303093128,24.802740383055287C29.09979231084955,24.00817396075543,30.17082393330575,21.50049464185249,30.64806930236346,19.343326230679136C31.124774036480467,17.188601511349994,31.12472481136207,14.54350290089964,29.676379757184243,12.878455567141154C28.089860997504697,11.05456089291119,24.755728949721938,12.058468260552331,22.93155861615886,10.472266460134769C21.561728897499158,9.281135168267188,22.745643343807874,6.1756331069377755,21.096215433416752,5.4175996109679545C19.43126567413233,4.652432683275304,17.82914908938409,7.178299796961868,16,7.2867052257061005C14.32148710080665,7.3861831258651565,12.740685974282119,5.3629034011295085,11.186612163607556,6.004897167730061C9.664834595787285,6.6335492343066775,9.600249118442987,8.819802450640058,8.802363208574768,10.260076195997446C8.123290953313301,11.485877940779801,7.458790192402537,12.65995318081454,6.811343375342856,13.902749087010184C5.985037996823147,15.488870007884332,4.688907374550802,16.86847868439248,4.437211771229524,18.6391309589721C4.154239761177018,20.629809487441563,3.8434908251561013,23.14687792163812,5.300308874490705,24.532718941854878C6.828772730932193,25.986715143468935,9.60213735752134,24.423374258776118,11.495551318456902,25.353584066986286C13.410924154224482,26.294581986601266,13.91460041015428,30.242371726553912,16,29.78933890722692" fill="#7ed0ec" strokewidth="0"/>
</g>
<g id="SVGRepo_tracerCarrier" stroke-linecap="round" stroke-linejoin="round"/>
<g id="SVGRepo_iconCarrier"> <g id="color"> <path fill="#ffffff" d="m56.25 31.81v-6.134h-27.84v-8.433l-12.66 11.5 12.66 11.5v-8.433z"/> </g> <g id="line"> <path fill="none" stroke="#ffffff" stroke-linecap="round" stroke-linejoin="round" stroke-width="2" d="m56.25 31.81h-27.84v8.433l-12.66-11.5 12.66-11.5v8.433h27.84z"/> <path fill="none" stroke="#ffffff" stroke-linecap="round" stroke-linejoin="round" stroke-width="2" d="m28.52 44.7h-5.714v10h5.714"/> <path fill="none" stroke="#ffffff" stroke-linecap="round" stroke-linejoin="round" stroke-width="2" d="m22.81 49.7h4.286"/> <path fill="none" stroke="#ffffff" stroke-linecap="round" stroke-linejoin="round" stroke-width="2" d="m33 54.75v-10l7.143 10v-10"/> <path fill="none" stroke="#ffffff" stroke-linecap="round" stroke-linejoin="round" stroke-width="2" d="m45.06 44.68h4.383a2.08 2.08 0 0 1 2.08 2.08v5.841a2.08 2.08 0 0 1-2.08 2.08h-4.383v-10z"/> </g> </g>
</svg>