<!DOCTYPE svg PUBLIC "-//W3C//DTD SVG 1.1//EN" "http://www.w3.org/Graphics/SVG/1.1/DTD/svg11.dtd">
<!-- Uploaded to: SVG Repo, www.svgrepo.com, Transformed by: SVG Repo Mixer Tools -->
<svg width="800px" height="800px" viewBox="-6.96 -6.96 37.92 37.92" fill="none" xmlns="http://www.w3.org/2000/svg">
<g id="SVGRepo_bgCarrier" stroke-width="0">
<path transform="translate(-6.96, -6.96), scale(1.185)" d="M16,28.416539066604205C18.375668369495138,28.295231564726134,20.62241457742611,27.58289866566028,22.704159790034016,26.43187625857359C24.90190163986638,25.216717891051662,27.259898365473674,23.90301568004422,28.29851102896609,21.61654179392692C29.336503358234328,19.331433554555616,28.805679220207296,16.685585279677202,28.24230371967969,14.23982245661614C27.714751014102337,11.949575910044604,26.358666147321586,10.080571278749971,25.173707167109097,8.050937489994322C23.699371179663938,5.525649960158882,23.278559045229198,1.581482758631254,20.44057621495385,0.876786251416549C17.567275332759866,0.16331995618086603,15.444964581153963,3.7193979563442237,12.760927883970238,4.968733428595428C10.59050450632594,5.9789979001428835,8.072868419355277,6.017890191544679,6.197807172264813,7.506351565029224C4.07936458783494,9.188013944730951,1.74129452898904,11.220815673736007,1.4921821453139295,13.914090699263422C1.243815943768753,16.599298387208496,3.6354610316465195,18.691314971192494,4.945232676380245,21.048543075581378C6.140039655104794,23.19886645515191,6.793928530707293,25.77545926111005,8.840905619014098,27.139768299811884C10.899663398993608,28.51192916266116,13.529091263933829,28.542709777124966,16,28.416539066604205" fill="#7ed0ec" strokewidth="0"/>
</g>
<g id="SVGRepo_tracerCarrier" stroke-linecap="round" stroke-linejoin="round"/>
<g id="SVGRepo_iconCarrier"> <path d="M9 10L15 10" stroke="#ffffff" stroke-width="2" stroke-linecap="round" stroke-linejoin="round"/> <path d="M9 14L15 14" stroke="#ffffff" stroke-width="2" stroke-linecap="round" stroke-linejoin="round"/> <path d="M3 12C3 4.5885 4.5885 3 12 3C19.4115 3 21 4.5885 21 12C21 19.4115 19.4115 21 12 21C4.5885 21 3 19.4115 3 12Z" stroke="#ffffff" stroke-width="2"/> </g>
</svg>