<!DOCTYPE svg PUBLIC "-//W3C//DTD SVG 1.1//EN" "http://www.w3.org/Graphics/SVG/1.1/DTD/svg11.dtd">
<!-- Uploaded to: SVG Repo, www.svgrepo.com, Transformed by: SVG Repo Mixer Tools -->
<svg width="201px" height="201px" viewBox="-8.96 -8.96 33.92 33.92" fill="none" xmlns="http://www.w3.org/2000/svg" stroke="#ffffff">
<g id="SVGRepo_bgCarrier" stroke-width="0">
<path transform="translate(-8.96, -8.96), scale(1.06)" d="M16,31.014494589995593C18.608904518396034,31.128034699431243,21.103105450422902,30.061537401075753,23.35897336481139,28.74611575939943C25.608506142786517,27.434388206143776,27.70266520261006,25.762145686827925,28.938383706793974,23.46997931599617C30.158312024449245,21.207102572557368,30.98520267534203,18.4574810806605,30.230468951165676,16C29.49767987129439,13.613972660538598,26.28827001899278,12.942217742749644,25.041112113917123,10.780111487256367C23.793180960251597,8.616664707354422,24.772661012072618,5.541674241310335,23.118469893001024,3.6704484731728453C21.37304245824967,1.6960159214167165,18.63077288290532,0.39807038515809706,16.000000000000004,0.5527793699875474C13.38523182750338,0.7065471589745483,11.095984866326077,2.528571331358004,9.349036570638422,4.4801934210632C7.82808437575681,6.1793415345155935,8.186854981366022,8.865257048961434,6.883965732313126,10.736855161609125C5.401456083403199,12.866477662446231,1.5967644331942785,13.418956182223324,1.3296695700846612,15.999999999999996C1.0719522781185733,18.49042462074691,4.386418794927561,19.8164463369142,5.725454283608228,21.932011735159897C6.99552716158419,23.93862190838515,7.22250943620881,26.5484566813845,9.001771617680781,28.121287121147425C10.925791612959129,29.82208043131759,13.434442693435178,30.90284096093527,16,31.014494589995593" fill="#7ed0ec" strokewidth="0"/>
</g>
<g id="SVGRepo_tracerCarrier" stroke-linecap="round" stroke-linejoin="round"/>
<g id="SVGRepo_iconCarrier"> <path fill-rule="nonzero" clip-rule="nonzero" d="M0 1.75C0 0.783501 0.783502 0 1.75 0H14.25C15.2165 0 16 0.783502 16 1.75V14.25C16 15.2165 15.2165 16 14.25 16H1.75C0.783501 16 0 15.2165 0 14.25V1.75ZM1.75 1.5C1.61193 1.5 1.5 1.61193 1.5 1.75V14.25C1.5 14.3881 1.61193 14.5 1.75 14.5H14.25C14.3881 14.5 14.5 14.3881 14.5 14.25V1.75C14.5 1.61193 14.3881 1.5 14.25 1.5H1.75ZM4.23621 3.29792C4.5287 3.18802 4.85868 3.27097 5.06443 3.50612L10.75 10.0039V4C10.75 3.58579 11.0858 3.25 11.5 3.25C11.9142 3.25 12.25 3.58579 12.25 4V12C12.25 12.3125 12.0563 12.5922 11.7638 12.7021C11.4713 12.812 11.1413 12.729 10.9356 12.4939L5.25 5.99609V12C5.25 12.4142 4.91421 12.75 4.5 12.75C4.08579 12.75 3.75 12.4142 3.75 12V4C3.75 3.68754 3.94371 3.40782 4.23621 3.29792Z" fill="#ffffff"/> </g>
</svg>