<!DOCTYPE svg PUBLIC "-//W3C//DTD SVG 1.1//EN" "http://www.w3.org/Graphics/SVG/1.1/DTD/svg11.dtd">
<!-- Uploaded to: SVG Repo, www.svgrepo.com, Transformed by: SVG Repo Mixer Tools -->
<svg width="800px" height="800px" viewBox="-6.96 -6.96 37.92 37.92" fill="none" xmlns="http://www.w3.org/2000/svg" stroke="#ffffff">
<g id="SVGRepo_bgCarrier" stroke-width="0">
<path transform="translate(-6.96, -6.96), scale(1.185)" d="M16,28.67683356846957C18.608725239459762,29.133201493164,21.008910020860515,27.381758264938362,23.282061036580313,26.022897154516716C25.78086363538925,24.529144363496446,28.942523546366168,23.26422851036796,29.73874024310756,20.463987306413316C30.532263045068795,17.67322035135774,28.579416790354784,14.90515035022316,27.163304298741608,12.372822558297381C25.992057804842545,10.278370270599883,24.40703830303607,8.49653309298809,22.352754744875618,7.25618322396574C20.434771397526962,6.098129661096722,18.20295848746219,6.040879812957578,16,5.632563663756146C13.177148984283537,5.109351055317705,10.103280381484776,3.0111271243261277,7.670009013648036,4.534751008697315C5.257597460359273,6.045313254285027,5.821748566206011,9.705043126091352,5.099329497864037,12.458157451710978C4.430204991706078,15.008168026258264,2.492327048433445,17.63730918952472,3.604707833130563,20.027474565577336C4.717640729499238,22.41882626039707,8.197218702308565,22.25299006382408,10.360302971625156,23.762377026790134C12.456475269042059,25.225073225330426,13.482181645810563,28.23636880825705,16,28.67683356846957" fill="#7ed0ec" strokewidth="0"/>
</g>
<g id="SVGRepo_tracerCarrier" stroke-linecap="round" stroke-linejoin="round"/>
<g id="SVGRepo_iconCarrier"> <g clip-path="url(#clip0_429_11043)"> <circle cx="12" cy="11.9999" r="9" stroke="#ffffff" stroke-width="2.5" stroke-linecap="round" stroke-linejoin="round"/> <rect x="12" y="16" width="0.01" height="0.01" stroke="#ffffff" stroke-width="3.75" stroke-linejoin="round"/> <path d="M10.5858 7.58572C10.9754 7.1961 11.4858 7.00083 11.9965 6.99994C12.5095 6.99904 13.0228 7.1943 13.4142 7.58572C13.8047 7.97625 14 8.48809 14 8.99994C14 9.51178 13.8047 10.0236 13.4142 10.4141C13.0228 10.8056 12.5095 11.0008 11.9965 10.9999L12 11.9999" stroke="#ffffff" stroke-width="2.5" stroke-linecap="round" stroke-linejoin="round"/> </g> <defs> <clipPath id="clip0_429_11043"> <rect width="24" height="24" fill="white"/> </clipPath> </defs> </g>
</svg>